<?xml version="1.0" encoding="UTF-8"?>
<svg xmlns="http://www.w3.org/2000/svg" width="64" height="64" viewBox="0 0 64 64">
  <defs>
    <linearGradient id="bg" x1="0" y1="0" x2="0" y2="1">
      <stop offset="0" stop-color="#0f172a" />
      <stop offset="1" stop-color="#172554" />
    </linearGradient>
    <linearGradient id="shield" x1="0" y1="0" x2="1" y2="1">
      <stop offset="0" stop-color="#1d4ed8" />
      <stop offset="0.55" stop-color="#2563eb" />
      <stop offset="1" stop-color="#38bdf8" />
    </linearGradient>
    <linearGradient id="gloss" x1="0" y1="0" x2="0" y2="1">
      <stop offset="0" stop-color="#ffffff" stop-opacity="0.42" />
      <stop offset="1" stop-color="#ffffff" stop-opacity="0" />
    </linearGradient>
  </defs>
  <rect x="4" y="4" width="56" height="56" rx="14" fill="url(#bg)" />
  <path d="M32 10c-6.8 3.8-11.4 4.8-17 4.8v18c0 11.9 7.2 20.3 17 23.2 9.8-2.9 17-11.3 17-23.2v-18C43.4 14.8 38.8 13.8 32 10z" fill="url(#shield)" />
  <path d="M32 13.6c4.6 2.6 8.5 3.5 13.5 3.9a1.6 1.6 0 0 1 1.5 1.6v13.7c0 9.6-5.5 16.9-15 20.1-9.5-3.2-15-10.5-15-20.1V19.1a1.6 1.6 0 0 1 1.5-1.6c5-0.4 8.9-1.3 13.5-3.9z" fill="url(#gloss)" />
  <path d="M32 25.5c-4 0-7.2 3.2-7.2 7.2v4.6h3.6v-4.6a3.6 3.6 0 0 1 7.2 0v4.6h3.6v-4.6c0-4-3.2-7.2-7.2-7.2zm0 15.9a2.7 2.7 0 1 1 0-5.4 2.7 2.7 0 0 1 0 5.4z" fill="#0f172a" opacity="0.2" />
  <path d="M32 23.5c-4.8 0-8.7 3.9-8.7 8.7v4.9H27v-4.9a5 5 0 0 1 10 0v4.9h3.7v-4.9c0-4.8-3.9-8.7-8.7-8.7zm0 17.2a3.2 3.2 0 1 1 0-6.4 3.2 3.2 0 0 1 0 6.4z" fill="#f8fafc" />
</svg>
